<?xml version="1.0" standalone="no"?>
<!DOCTYPE svg PUBLIC "-//W3C//DTD SVG 20010904//EN"
 "http://www.w3.org/TR/2001/REC-SVG-20010904/DTD/svg10.dtd">
<svg version="1.0" xmlns="http://www.w3.org/2000/svg"
 width="470.000000pt" height="470.000000pt" viewBox="0 0 470.000000 470.000000"
 preserveAspectRatio="xMidYMid meet">
<metadata>
Created by potrace 1.14, written by Peter Selinger 2001-2017
</metadata>
<g transform="translate(0.000000,470.000000) scale(0.100000,-0.100000)"
fill="#000000" stroke="none">
<path d="M1418 4435 c-2 -2 -34 -5 -73 -9 -110 -9 -135 -13 -211 -35 -101 -29
-181 -60 -234 -90 -25 -14 -57 -33 -72 -40 -16 -8 -28 -18 -28 -23 0 -4 -5 -8
-11 -8 -26 0 -131 -96 -229 -210 -36 -41 -71 -81 -79 -90 -26 -27 -159 -237
-180 -283 -45 -100 -80 -220 -96 -334 -3 -21 -11 -60 -17 -88 -13 -58 -17
-238 -6 -275 4 -14 16 -57 28 -96 28 -96 70 -145 147 -170 64 -20 124 -21 163
-2 31 15 105 77 184 152 33 31 62 56 66 56 15 0 141 -53 216 -92 59 -30 85
-50 97 -72 35 -68 130 -275 169 -368 22 -54 50 -106 62 -116 54 -44 100 -131
112 -212 3 -19 7 -43 10 -52 3 -9 7 -27 9 -40 3 -13 7 -34 10 -48 3 -14 7 -34
9 -45 2 -11 16 -78 31 -150 15 -71 29 -141 31 -155 2 -14 9 -45 14 -70 6 -25
12 -54 14 -65 21 -107 85 -190 140 -182 19 2 44 -4 70 -19 22 -12 43 -21 47
-18 5 2 13 -5 19 -16 6 -11 8 -20 5 -20 -3 0 1 -12 9 -27 8 -16 23 -46 32 -68
58 -133 261 -320 650 -600 15 -11 59 -45 98 -76 39 -31 80 -59 91 -64 33 -13
55 -15 55 -5 0 10 -46 96 -64 119 -6 8 -6 13 -1 10 6 -3 51 -25 100 -48 50
-24 97 -47 106 -51 9 -4 21 -5 28 0 9 5 4 14 -18 29 -17 12 -31 27 -31 32 0 6
4 8 9 5 5 -3 14 0 20 8 10 11 -1 21 -56 51 -105 58 -179 120 -238 200 -16 22
-33 42 -36 45 -9 8 -162 223 -178 250 -47 81 -140 275 -158 330 -12 36 -40
130 -62 210 -22 80 -52 181 -67 225 -14 44 -27 85 -28 90 -1 6 -5 16 -9 23 -5
6 -6 12 -2 12 3 0 1 9 -5 20 -6 11 -9 20 -7 20 2 0 37 -27 78 -60 40 -33 79
-60 86 -60 7 0 13 -4 13 -10 0 -5 4 -10 9 -10 20 0 411 -232 514 -305 148
-105 142 -100 219 -176 65 -62 129 -104 142 -92 6 6 -59 133 -73 143 -4 3 -17
19 -30 35 -12 17 -45 54 -73 83 -46 48 -48 52 -26 52 13 0 33 6 43 14 18 13
17 14 -11 31 -16 10 -40 26 -54 35 -14 10 -79 50 -145 90 -192 118 -356 248
-448 358 -15 17 -24 32 -21 32 8 0 138 -103 142 -112 2 -5 8 -8 14 -8 6 0 38
-17 72 -38 130 -82 284 -142 401 -158 17 -2 41 -6 55 -8 28 -6 95 -15 143 -21
123 -13 207 -24 237 -30 23 -4 86 -11 195 -19 95 -8 257 -55 346 -101 153 -79
171 -53 50 72 -52 54 -99 92 -138 111 -66 33 -163 68 -208 75 -240 38 -310 58
-430 126 -94 52 -121 72 -200 146 -17 17 -70 66 -118 109 -48 44 -87 85 -87
93 0 7 -4 13 -10 13 -5 0 -10 5 -10 12 0 6 -11 26 -26 45 -14 18 -22 33 -19
33 7 0 67 -40 75 -50 3 -3 39 -27 80 -52 69 -41 106 -56 255 -101 63 -19 179
-35 315 -42 174 -9 256 -14 304 -20 25 -3 65 -7 89 -10 49 -6 211 -59 227 -75
3 -3 44 -25 92 -49 47 -25 106 -62 130 -82 64 -57 85 -66 104 -47 14 14 14 19
1 44 -8 16 -45 57 -81 92 -36 35 -66 66 -66 68 0 9 154 -78 216 -121 33 -24
77 -62 97 -85 28 -30 43 -39 57 -35 42 13 8 83 -84 168 -28 27 -65 61 -82 78
-17 16 -34 29 -37 29 -4 0 -35 17 -69 38 -55 33 -134 69 -171 76 -6 2 -21 7
-32 11 -75 30 -116 43 -155 50 -72 12 -79 13 -205 35 -168 28 -171 29 -256 50
-79 20 -185 58 -256 90 -24 11 -45 20 -48 20 -10 0 -115 73 -115 80 0 4 33 8
73 9 63 1 103 -4 184 -22 11 -3 29 0 38 7 17 12 16 14 -6 34 -12 12 -26 22
-30 22 -4 0 -35 16 -69 37 l-61 36 83 25 c46 13 90 25 98 27 8 2 15 4 15 5 0
1 11 4 25 6 27 5 41 21 33 40 -4 10 -21 12 -66 8 -34 -3 -69 -5 -77 -5 -8 1
-33 1 -55 1 l-40 0 31 19 c17 10 40 22 52 25 50 16 152 147 152 196 0 26 -16
25 -31 -1 -14 -26 -51 -63 -104 -104 -34 -26 -50 -31 -104 -34 -35 -1 -87 3
-115 10 -54 12 -126 47 -126 61 0 4 -5 8 -11 8 -6 0 -36 19 -67 43 -135 103
-168 120 -326 170 -62 20 -79 31 -157 107 -65 63 -95 101 -115 145 -26 57 -31
74 -55 190 -12 56 -17 215 -8 215 4 0 27 -9 52 -20 50 -22 71 -19 120 22 28
22 62 86 52 96 -3 3 0 11 6 18 34 41 -123 211 -267 290 -49 27 -92 49 -96 49
-3 0 -9 3 -13 7 -34 34 -239 102 -403 134 -26 5 -279 13 -284 9z"/>
</g>
</svg>
